PathFileType	4	(X/Y/Z)	C:\Users\WrightLab\Desktop\Jo\P5V134.trc
DataRate	CameraRate	NumFrames	NumMarkers	Units	OrigDataRate	OrigDataStartFrame	OrigNumFrames
100.00	100.00	       7	19	mm	100.00	199	       529
Frame#	Time	Headset_Front			Headset_Back			Headset_Left			Headset_Right			Left_Shoulder			Right_Shoulder			Sternum			C7			Left Elbow			Right Elbow			Left Wrist			Right Wrist			Left ASIS			Right ASIS			S2			Left Knee			Right Knee			Left Ankle			Right Ankle			
		X1	Y1	Z1	X2	Y2	Z2	X3	Y3	Z3	X4	Y4	Z4	X5	Y5	Z5	X6	Y6	Z6	X7	Y7	Z7	X8	Y8	Z8	X9	Y9	Z9	X10	Y10	Z10	X11	Y11	Z11	X12	Y12	Z12	X13	Y13	Z13	X14	Y14	Z14	X15	Y15	Z15	X16	Y16	Z16	X17	Y17	Z17	X18	Y18	Z18	X19	Y19	Z19	

199	1.980	232.53900	1535.11597	55.76793							176.38620	1593.86731	-70.86929	556.12183	1487.70032	-76.71291	175.62572	1427.34082	-234.58020	324.41449	1313.22717	-64.72006	402.46542	1506.67139	-267.99744	673.16443	1237.14185	-53.34900	163.69336	1160.50037	-347.71957	516.17181	1172.82275	88.76273	132.51697	1033.24329	-141.70001	472.39444	928.00183	7.30925	233.45648	928.31580	-140.05530	529.78284	961.33154	-290.16336	584.83319	528.78217	44.58416	319.78809	481.02573	-145.73497	638.69476	105.83675	-52.26990	382.54654	269.36185	-447.94370	
200	1.990	228.95659	1536.97693	64.08707							174.05133	1596.15784	-63.00127	552.98621	1489.04944	-63.19161	174.96758	1430.12988	-228.12709	321.06610	1314.77441	-57.36576	402.68057	1509.21887	-257.71155	669.75793	1239.23364	-38.12931	166.08015	1163.28772	-342.36237	511.24921	1176.27124	101.42112	130.97173	1037.43945	-136.76228	466.76855	929.12433	17.21814	230.40292	930.12134	-133.74590	528.67639	964.09546	-278.00610	585.83014	528.94696	52.95458	312.17529	483.75937	-121.63746	637.97559	106.76575	-51.83135	386.46072	274.32608	-424.41275	
201	2.000	225.09727	1538.64758	72.28156							171.39680	1598.86743	-55.08507	549.70905	1490.71472	-50.93680	174.39912	1433.23096	-222.64720	316.81744	1316.67615	-49.22380	402.57986	1511.99597	-247.70499	665.85620	1241.15039	-23.35373	168.28720	1166.11780	-336.58585	504.09662	1179.01831	112.98485	130.70183	1040.88220	-132.73047	460.60559	930.04919	26.56465	227.50867	933.40802	-125.92599	527.50977	966.42072	-266.51852	586.27466	528.29401	57.19630	304.08823	486.48380	-97.59683	637.75958	107.09382	-51.62264	390.53009	279.28568	-401.72629	
202	2.010	221.25497	1540.45630	80.33955							168.80157	1601.41760	-47.28571	546.77655	1492.78833	-37.67957	174.01303	1436.00586	-216.92973	313.44000	1318.94495	-40.83281	402.58423	1514.39880	-237.62170	661.86511	1243.03271	-8.30323	170.30016	1168.89417	-331.74551	495.71686	1180.60010	124.33186	129.45860	1044.26843	-127.96191	454.91168	930.66833	35.13269	224.14986	935.24353	-123.84188	526.25403	968.52179	-254.85774	587.89557	527.58600	64.50156	294.89053	489.23981	-73.24680	637.22461	107.46032	-51.72681	394.19958	282.79550	-378.61453	
203	2.020	218.15457	1541.84912	87.49716							166.15001	1603.18091	-39.85014	542.54974	1494.53821	-26.36415	173.09018	1438.75500	-210.33342	310.08646	1320.30273	-33.69913	402.66266	1516.56604	-228.53351	656.86688	1245.25049	7.43826	171.90877	1171.91577	-327.81747	488.76556	1182.80896	135.43333	127.95683	1047.44507	-123.95583	449.22760	931.69336	43.83239	220.92589	937.72662	-119.52120	525.54291	970.61517	-244.96729	588.37030	526.67480	70.09329	286.76456	491.97440	-49.73090	636.78857	107.75303	-51.57636	396.95404	284.64148	-354.64743	
204	2.030	213.81551	1543.13232	95.55256							163.44244	1604.37634	-32.65042	538.35431	1495.44861	-13.65362	172.42329	1440.94434	-204.13007	306.19641	1321.63062	-25.70648	401.58203	1518.46448	-217.68108	652.74396	1246.92017	21.40839	173.19995	1173.82751	-321.48285	483.56226	1186.30408	148.16101	126.47120	1050.47192	-119.04697	443.55853	932.58380	52.29591	217.55273	939.54443	-114.59464	523.13342	972.27246	-234.69681	586.96881	525.81250	75.26820	278.47592	494.50446	-27.47133	636.29236	108.36652	-51.94194	399.48755	285.70139	-330.90137	
205	2.040	209.56425	1544.28918	103.18391							160.70505	1605.38940	-25.73638	534.97540	1497.47131	-2.04989	171.81442	1442.84973	-198.17026	302.01663	1322.72095	-17.67701	401.56714	1520.57544	-208.30836	648.32330	1248.79871	35.13636	174.51692	1175.96472	-316.11649	476.43890	1188.12793	159.27286	124.92869	1053.56641	-114.54963	438.37991	933.11884	60.30868	215.20248	941.43030	-108.65984	520.07324	973.55029	-225.04933	582.83270	526.39728	79.94029	269.73019	498.86780	-5.67895	635.56946	108.65686	-51.57093	402.22955	285.38919	-307.19904	
